HIERARCHY
ROOT reference
{
  OFFSET 0 0 0
  CHANNELS 6 Xposition Yposition Zposition Zrotation Xrotation Yrotation
  JOINT Hips
  {
    OFFSET 347.352 87.9396 215.108
    CHANNELS 3 Zrotation Xrotation Yrotation
    JOINT RightUpLeg
    {
      OFFSET -9.26448 -1.5905 0.0349838
      CHANNELS 3 Zrotation Xrotation Yrotation
      JOINT RightLeg
      {
        OFFSET 0.0309074 -41.8937 0.0182011
        CHANNELS 3 Zrotation Xrotation Yrotation
        JOINT RightFoot
        {
          OFFSET 0.355296 -42.3801 0.810868
          CHANNELS 3 Zrotation Xrotation Yrotation
          End Site
          {
            OFFSET 0 -7.69 17.5
          }
        }
      }
    }
    JOINT LeftUpLeg
    {
      OFFSET 9.27369 -1.59127 -0.0547904
      CHANNELS 3 Zrotation Xrotation Yrotation
      JOINT LeftLeg
      {
        OFFSET 0.0553589 -41.8938 0.0587288
        CHANNELS 3 Zrotation Xrotation Yrotation
        JOINT LeftFoot
        {
          OFFSET 0.217916 -41.5497 -0.688939
          CHANNELS 3 Zrotation Xrotation Yrotation
          End Site
          {
            OFFSET 0 -7.69 17.5
          }
        }
      }
    }
    JOINT Spine
    {
      OFFSET 0.0383554 14.2988 0.0402393
      CHANNELS 3 Zrotation Xrotation Yrotation
      JOINT Spine1
      {
        OFFSET 0.0188251 9.70742 0.0136471
        CHANNELS 3 Zrotation Xrotation Yrotation
        JOINT Spine2
        {
          OFFSET 0.0421292 10.115 0.0126686
          CHANNELS 3 Zrotation Xrotation Yrotation
          JOINT Spine3
          {
            OFFSET 0.0499826 9.71803 0.0151296
            CHANNELS 3 Zrotation Xrotation Yrotation
            JOINT Neck
            {
              OFFSET 0.04654 10.3867 0.0448026
              CHANNELS 3 Zrotation Xrotation Yrotation
              JOINT Head
              {
                OFFSET 0.0370611 9.47282 0.0189897
                CHANNELS 3 Zrotation Xrotation Yrotation
                End Site
                {
                  OFFSET 0 15.95 0
                }
              }
            }
            JOINT RightShoulder
            {
              OFFSET -3.19309 6.93146 -0.00624137
              CHANNELS 3 Zrotation Xrotation Yrotation
              JOINT RightArm
              {
                OFFSET -12.7764 0.00688168 -0.00548706
                CHANNELS 3 Zrotation Xrotation Yrotation
                JOINT RightForeArm
                {
                  OFFSET -26.5073 -0.0244096 0.0677859
                  CHANNELS 3 Zrotation Xrotation Yrotation
                  JOINT RightHand
                  {
                    OFFSET -26.0056 -0.000416843 0.0508974
                    CHANNELS 3 Zrotation Xrotation Yrotation
                    JOINT RightHandThumb1
                    {
                      OFFSET -2.48905 0.190105 3.12053
                      CHANNELS 3 Zrotation Xrotation Yrotation
                      JOINT RightHandThumb2
                      {
                        OFFSET -3.68274 0 0
                        CHANNELS 3 Zrotation Xrotation Yrotation
                        JOINT RightHandThumb3
                        {
                          OFFSET -2.55832 0 0
                          CHANNELS 3 Zrotation Xrotation Yrotation
                          End Site
                          {
                            OFFSET -2.194 0 0
                          }
                        }
                      }
                    }
                    JOINT RightInHandIndex
                    {
                      OFFSET -3.22368 0.508421 1.97842
                      CHANNELS 3 Zrotation Xrotation Yrotation
                      JOINT RightHandIndex1
                      {
                        OFFSET -5.21684 -0.091368 0.999158
                        CHANNELS 3 Zrotation Xrotation Yrotation
                        JOINT RightHandIndex2
                        {
                          OFFSET -3.61937 0 0
                          CHANNELS 3 Zrotation Xrotation Yrotation
                          JOINT RightHandIndex3
                          {
                            OFFSET -2.0521 0 0
                            CHANNELS 3 Zrotation Xrotation Yrotation
                            End Site
                            {
                              OFFSET -1.805 0 0
                            }
                          }
                        }
                      }
                    }
                    JOINT RightInHandMiddle
                    {
                      OFFSET -3.38211 0.517263 0.756737
                      CHANNELS 3 Zrotation Xrotation Yrotation
                      JOINT RightHandMiddle1
                      {
                        OFFSET -5.17411 -0.084 0.313895
                        CHANNELS 3 Zrotation Xrotation Yrotation
                        JOINT RightHandMiddle2
                        {
                          OFFSET -3.94947 0 0
                          CHANNELS 3 Zrotation Xrotation Yrotation
                          JOINT RightHandMiddle3
                          {
                            OFFSET -2.47579 0 0
                            CHANNELS 3 Zrotation Xrotation Yrotation
                            End Site
                            {
                              OFFSET -1.975 0 0
                            }
                          }
                        }
                      }
                    }
                    JOINT RightInHandRing
                    {
                      OFFSET -3.36516 0.537895 -0.128947
                      CHANNELS 3 Zrotation Xrotation Yrotation
                      JOINT RightHandRing1
                      {
                        OFFSET -4.63474 -0.022105 -0.478947
                        CHANNELS 3 Zrotation Xrotation Yrotation
                        JOINT RightHandRing2
                        {
                          OFFSET -3.44238 0 0
                          CHANNELS 3 Zrotation Xrotation Yrotation
                          JOINT RightHandRing3
                          {
                            OFFSET -2.3881 0 0
                            CHANNELS 3 Zrotation Xrotation Yrotation
                            End Site
                            {
                              OFFSET -1.857 0 0
                            }
                          }
                        }
                      }
                    }
                    JOINT RightInHandPinky
                    {
                      OFFSET -3.16105 0.469368 -1.20179
                      CHANNELS 3 Zrotation Xrotation Yrotation
                      JOINT RightHandPinky1
                      {
                        OFFSET -4.14105 -0.022105 -1.09053
                        CHANNELS 3 Zrotation Xrotation Yrotation
                        JOINT RightHandPinky2
                        {
                          OFFSET -2.75653 0 0
                          CHANNELS 3 Zrotation Xrotation Yrotation
                          JOINT RightHandPinky3
                          {
                            OFFSET -1.74189 0 0
                            CHANNELS 3 Zrotation Xrotation Yrotation
                            End Site
                            {
                              OFFSET -1.645 0 0
                            }
                          }
                        }
                      }
                    }
                  }
                }
              }
            }
            JOINT LeftShoulder
            {
              OFFSET 3.25131 6.94393 -0.0111894
              CHANNELS 3 Zrotation Xrotation Yrotation
              JOINT LeftArm
              {
                OFFSET 12.7762 -0.0164608 -0.057961
                CHANNELS 3 Zrotation Xrotation Yrotation
                JOINT LeftForeArm
                {
                  OFFSET 26.494 -0.0292415 -0.00751187
                  CHANNELS 3 Zrotation Xrotation Yrotation
                  JOINT LeftHand
                  {
                    OFFSET 26.0005 -0.052199 0.00178648
                    CHANNELS 3 Zrotation Xrotation Yrotation
                    JOINT LeftHandThumb1
                    {
                      OFFSET 2.48905 0.190105 3.12053
                      CHANNELS 3 Zrotation Xrotation Yrotation
                      JOINT LeftHandThumb2
                      {
                        OFFSET 3.68274 0 0
                        CHANNELS 3 Zrotation Xrotation Yrotation
                        JOINT LeftHandThumb3
                        {
                          OFFSET 2.55832 0 0
                          CHANNELS 3 Zrotation Xrotation Yrotation
                          End Site
                          {
                            OFFSET 2.194 0 0
                          }
                        }
                      }
                    }
                    JOINT LeftInHandIndex
                    {
                      OFFSET 3.22368 0.508421 1.97842
                      CHANNELS 3 Zrotation Xrotation Yrotation
                      JOINT LeftHandIndex1
                      {
                        OFFSET 5.21684 -0.091368 0.999158
                        CHANNELS 3 Zrotation Xrotation Yrotation
                        JOINT LeftHandIndex2
                        {
                          OFFSET 3.61937 0 0
                          CHANNELS 3 Zrotation Xrotation Yrotation
                          JOINT LeftHandIndex3
                          {
                            OFFSET 2.0521 0 0
                            CHANNELS 3 Zrotation Xrotation Yrotation
                            End Site
                            {
                              OFFSET 1.805 0 0
                            }
                          }
                        }
                      }
                    }
                    JOINT LeftInHandMiddle
                    {
                      OFFSET 3.38211 0.517263 0.756737
                      CHANNELS 3 Zrotation Xrotation Yrotation
                      JOINT LeftHandMiddle1
                      {
                        OFFSET 5.17411 -0.084 0.313895
                        CHANNELS 3 Zrotation Xrotation Yrotation
                        JOINT LeftHandMiddle2
                        {
                          OFFSET 3.94947 0 0
                          CHANNELS 3 Zrotation Xrotation Yrotation
                          JOINT LeftHandMiddle3
                          {
                            OFFSET 2.47579 0 0
                            CHANNELS 3 Zrotation Xrotation Yrotation
                            End Site
                            {
                              OFFSET 1.975 0 0
                            }
                          }
                        }
                      }
                    }
                    JOINT LeftInHandRing
                    {
                      OFFSET 3.36516 0.537895 -0.128947
                      CHANNELS 3 Zrotation Xrotation Yrotation
                      JOINT LeftHandRing1
                      {
                        OFFSET 4.63474 -0.022105 -0.478947
                        CHANNELS 3 Zrotation Xrotation Yrotation
                        JOINT LeftHandRing2
                        {
                          OFFSET 3.44238 0 0
                          CHANNELS 3 Zrotation Xrotation Yrotation
                          JOINT LeftHandRing3
                          {
                            OFFSET 2.3881 0 0
                            CHANNELS 3 Zrotation Xrotation Yrotation
                            End Site
                            {
                              OFFSET 1.857 0 0
                            }
                          }
                        }
                      }
                    }
                    JOINT LeftInHandPinky
                    {
                      OFFSET 3.16105 0.469368 -1.20179
                      CHANNELS 3 Zrotation Xrotation Yrotation
                      JOINT LeftHandPinky1
                      {
                        OFFSET 4.14105 -0.022105 -1.09053
                        CHANNELS 3 Zrotation Xrotation Yrotation
                        JOINT LeftHandPinky2
                        {
                          OFFSET 2.75653 0 0
                          CHANNELS 3 Zrotation Xrotation Yrotation
                          JOINT LeftHandPinky3
                          {
                            OFFSET 1.74189 0 0
                            CHANNELS 3 Zrotation Xrotation Yrotation
                            End Site
                            {
                              OFFSET 1.645 0 0
                            }
                          }
                        }
                      }
                    }
                  }
                }
              }
            }
          }
        }
      }
    }
  }
}
MOTION
Frames: 2
Frame Time: 0.00833333
1.500000000000000000e+02 0.000000000000000000e+00 0.000000000000000000e+00 0.000000000000000000e+00 0.000000000000000000e+00 -0.000000000000000000e+00 5.466018170688906330e-02 -4.834453267657665837e-02 2.155311531638865741e-01 -1.605888441359550056e-01 -1.783711094187502566e-01 -1.713680823274353338e-01 1.243866789133685896e-02 1.406952250751629732e-02 -3.196383415572714992e-02 8.448837206400380134e-03 4.482432743921601140e-03 -1.704941298214374384e-03 -1.915140850858765287e-02 -1.833306370941855667e-01 -1.245390863246198104e-01 -1.105480886453229228e-02 8.813126196581807376e-03 -1.422466419983050429e-02 1.072816208974423230e-02 -6.473165098594697853e-03 9.250998966655094372e-03 -2.965924464500497085e-02 1.338085903444236925e-02 -1.518002561010387830e-01 -5.933092416876261863e-03 -7.882850257589677292e-03 -3.681446993138114132e-02 -1.041704566164477347e-02 -1.920479605445889540e-02 -5.705748940547624576e-02 -1.171440474380105800e-04 -1.546097805005853176e-03 9.941514963412649390e-04 -9.645473079869740923e-04 -8.182192186194236702e-03 5.068664367225293038e-02 1.596335807006670849e-03 -4.498026616919437864e-03 -2.161213278282944628e-02 -1.230347390263720857e-02 -1.651186039614155505e-03 2.406526298209022904e-02 5.365295325456692632e-02 3.497767280130188033e-02 1.050527677957819456e-01 9.011327121092048420e-02 5.882517943503666989e-03 -1.715679527625264544e-01 5.276068538316130291e-02 -1.797666249650145542e-02 6.954221941068318424e-02 0.000000000000000000e+00 0.000000000000000000e+00 0.000000000000000000e+00 8.666212848112026633e-15 -7.379385829060757900e-15 0.000000000000000000e+00 8.536290796852244191e-15 3.206455102024719723e-15 0.000000000000000000e+00 8.444081854607223988e-15 2.402983148963822203e-16 2.563929865507927280e-15 0.000000000000000000e+00 0.000000000000000000e+00 0.000000000000000000e+00 0.000000000000000000e+00 -2.550628062298113679e-15 -9.205736643624345885e-15 0.000000000000000000e+00 3.622123122169630186e-15 -5.535662706550362548e-15 8.444081854607223988e-15 2.402983148963822203e-16 2.563929865507927280e-15 0.000000000000000000e+00 -1.686318736098668580e-14 -4.754299792767000626e-15 0.000000000000000000e+00 1.983476382321161188e-15 -7.168344001950861806e-15 0.000000000000000000e+00 -6.824675842776333295e-16 -6.788704723663679869e-15 8.444081854607223988e-15 2.402983148963822203e-16 2.563929865507927280e-15 0.000000000000000000e+00 0.000000000000000000e+00 0.000000000000000000e+00 0.000000000000000000e+00 4.713118904081249749e-15 -8.960434906640490135e-15 0.000000000000000000e+00 5.423056670381878115e-15 -5.154014160148592548e-15 8.444081854607223988e-15 2.402983148963822203e-16 2.563929865507927280e-15 0.000000000000000000e+00 0.000000000000000000e+00 0.000000000000000000e+00 0.000000000000000000e+00 3.966102173379338616e-16 -6.977500033503027840e-15 0.000000000000000000e+00 6.029000093227235420e-15 -1.410323026028381417e-15 -2.363019317425067364e-02 2.700281611316939466e-03 -1.806417395003578202e-02 -1.153946231093181535e-01 4.587089486838788477e-02 3.676140400417006737e-01 -6.369668118850355110e-02 -8.723397126121577860e-02 -2.380777461500397374e-01 -1.348611911412802775e-02 -3.433482797448506735e-02 1.904624742870769660e-02 0.000000000000000000e+00 0.000000000000000000e+00 0.000000000000000000e+00 -1.559868567210819669e-15 2.236650026931870622e-16 0.000000000000000000e+00 -5.283750162585449699e-16 6.042783851982526027e-16 0.000000000000000000e+00 5.537466755011412275e-16 -8.551520483146715742e-16 5.729470419903200768e-15 0.000000000000000000e+00 0.000000000000000000e+00 0.000000000000000000e+00 0.000000000000000000e+00 -1.915349518431785877e-15 -8.378753746494079715e-15 0.000000000000000000e+00 -4.363383790281688447e-15 -4.487012960048025802e-17 5.537466755011412275e-16 -8.551520483146715742e-16 5.729470419903200768e-15 0.000000000000000000e+00 9.600850434198848761e-16 -1.346076735332308849e-14 0.000000000000000000e+00 -2.416627673321843190e-15 -3.587139041898700165e-15 0.000000000000000000e+00 1.039771650902272707e-15 4.696265444809862551e-16 5.537466755011412275e-16 -8.551520483146715742e-16 5.729470419903200768e-15 0.000000000000000000e+00 0.000000000000000000e+00 0.000000000000000000e+00 0.000000000000000000e+00 4.204683383525570209e-17 -3.294784369446789861e-15 0.000000000000000000e+00 2.380342182445180816e-15 -8.892178267834775194e-15 5.537466755011412275e-16 -8.551520483146715742e-16 5.729470419903200768e-15 0.000000000000000000e+00 0.000000000000000000e+00 0.000000000000000000e+00 0.000000000000000000e+00 2.308140421418467355e-15 -6.396736197364499118e-15 0.000000000000000000e+00 -1.643321725414023719e-15 2.948066436164173757e-15
1.500000000000000000e+02 0.000000000000000000e+00 0.000000000000000000e+00 0.000000000000000000e+00 0.000000000000000000e+00 -0.000000000000000000e+00 4.916557919455415843e-02 -7.460713361789306219e-02 1.694508140587304978e-01 -1.401225258711796817e-01 -1.513739380532899692e-01 -1.239974512038843346e-01 5.641213168321884165e-03 4.212318702779357547e-04 -1.596212916076349825e-02 3.384776079312497039e-03 2.913504808657027545e-03 -4.341749567675852288e-03 -4.443832280021411257e-02 -1.602553503931139489e-01 -9.266864327204449303e-02 -1.274954853061310497e-02 1.535415042370293776e-02 2.354779820496416022e-03 1.280305895857402655e-02 -9.461183944835265328e-03 3.320401003399419803e-03 -4.611519168024723336e-02 -1.192579617425013928e-02 -1.094778680352729572e-01 -1.028272475621442791e-02 -1.154247458707485796e-02 -2.505670487774541016e-02 -1.713604354899279925e-02 -2.334739541908485011e-02 -3.750897152335785911e-02 2.269830419992071907e-04 1.487085483869330857e-03 -3.887498342975196069e-04 1.333159508293681877e-03 6.401127354815747475e-03 -3.249955864571157232e-02 -1.769654877712537912e-03 5.761950690071423672e-03 1.200632127320634679e-02 -3.808993068187405042e-03 3.297855544312923871e-03 -1.340284573228464268e-02 3.186270854352798304e-02 2.214313877141104933e-02 4.862068990304562605e-02 1.702232359727052224e-01 1.003420499445028397e-01 -1.086861812591777554e-01 1.133609608233227158e-02 2.792194387151177848e-01 7.664865698024415919e-02 0.000000000000000000e+00 0.000000000000000000e+00 0.000000000000000000e+00 1.187188803015901866e-14 -1.635563898152034544e-15 0.000000000000000000e+00 6.331783994065633487e-15 4.951278877392815169e-15 0.000000000000000000e+00 4.545078846364958432e-15 1.095973870732181990e-14 -2.487220722866641035e-16 0.000000000000000000e+00 0.000000000000000000e+00 0.000000000000000000e+00 0.000000000000000000e+00 -1.620162466441193883e-15 9.614027902451332935e-16 0.000000000000000000e+00 8.208467284723973960e-16 -6.656288720713830143e-15 4.545078846364958432e-15 1.095973870732181990e-14 -2.487220722866641035e-16 0.000000000000000000e+00 -1.320881528231240532e-14 -4.440377104995489848e-17 0.000000000000000000e+00 -3.414999719142309528e-15 -8.850289325421223927e-15 0.000000000000000000e+00 -5.477028316594437462e-16 -1.263045208078950894e-14 4.545078846364958432e-15 1.095973870732181990e-14 -2.487220722866641035e-16 0.000000000000000000e+00 0.000000000000000000e+00 0.000000000000000000e+00 0.000000000000000000e+00 2.174123958842034225e-15 -9.752399432365000036e-15 0.000000000000000000e+00 1.535579971689354900e-15 -1.123387868236393261e-15 4.545078846364958432e-15 1.095973870732181990e-14 -2.487220722866641035e-16 0.000000000000000000e+00 0.000000000000000000e+00 0.000000000000000000e+00 0.000000000000000000e+00 3.450492178099124266e-15 -4.920453368904925279e-15 0.000000000000000000e+00 4.351011325198624360e-15 -2.459284264699511856e-15 -9.073616986948893764e-03 3.798715278241251471e-03 -1.034558590405410677e-02 -9.678240692075022744e-02 3.676099842596273343e-02 2.569598983964361261e-01 -3.907251779125182206e-02 -7.328881585072108407e-02 -1.334420654728764033e-01 -3.233473621371475704e-02 4.825967409851800519e-03 -2.421192557437795018e-02 0.000000000000000000e+00 0.000000000000000000e+00 0.000000000000000000e+00 -9.129867878094490878e-16 -1.378020696732012679e-15 0.000000000000000000e+00 -1.087969884591616794e-15 -7.367987695414972649e-16 0.000000000000000000e+00 -5.466523383928156063e-16 -1.044334460429142637e-15 4.513965846346543185e-15 0.000000000000000000e+00 0.000000000000000000e+00 0.000000000000000000e+00 0.000000000000000000e+00 -5.977720813061753457e-16 -5.331479392443298374e-15 0.000000000000000000e+00 3.526407603290147126e-16 -9.890264631953817418e-16 -5.466523383928156063e-16 -1.044334460429142637e-15 4.513965846346543185e-15 0.000000000000000000e+00 -2.163136112253120548e-16 -8.500291947658963327e-15 0.000000000000000000e+00 2.250628278906553454e-16 -2.072687191619280062e-15 0.000000000000000000e+00 1.322802921095958327e-15 -5.624109857636708233e-16 -5.466523383928156063e-16 -1.044334460429142637e-15 4.513965846346543185e-15 0.000000000000000000e+00 0.000000000000000000e+00 0.000000000000000000e+00 0.000000000000000000e+00 -4.782548155690648430e-15 -1.153588715060222736e-15 0.000000000000000000e+00 -2.333576929500117488e-16 -3.628662389747385876e-15 -5.466523383928156063e-16 -1.044334460429142637e-15 4.513965846346543185e-15 0.000000000000000000e+00 0.000000000000000000e+00 0.000000000000000000e+00 0.000000000000000000e+00 6.252542120958101392e-16 -4.003375650197374554e-15 0.000000000000000000e+00 -2.379867268290302010e-15 -6.057522556144575842e-15
